<svg width="40" height="40" viewBox="0 0 40 40" fill="none" xmlns="http://www.w3.org/2000/svg">
<rect width="40" height="40" fill="#E5E5E5"/>
<rect x="-381" y="-20" width="1728" height="1117" fill="white"/>
<rect x="-93.1" y="-25.3855" width="1457.1" height="1115.89" fill="url(#paint0_linear_0_1)"/>
<circle cx="20" cy="20" r="20" fill="#131313"/>
<path d="M18.5999 20.7101C18.5061 20.6171 18.4317 20.5065 18.381 20.3846C18.3302 20.2628 18.3041 20.1321 18.3041 20.0001C18.3041 19.868 18.3302 19.7373 18.381 19.6155C18.4317 19.4936 18.5061 19.383 18.5999 19.2901L23.1899 14.7101C23.2836 14.6171 23.358 14.5065 23.4088 14.3846C23.4595 14.2628 23.4857 14.1321 23.4857 14.0001C23.4857 13.868 23.4595 13.7373 23.4088 13.6155C23.358 13.4936 23.2836 13.383 23.1899 13.2901C23.0025 13.1038 22.749 12.9993 22.4849 12.9993C22.2207 12.9993 21.9672 13.1038 21.7799 13.2901L17.1899 17.8801C16.6281 18.4426 16.3125 19.2051 16.3125 20.0001C16.3125 20.7951 16.6281 21.5576 17.1899 22.1201L21.7799 26.7101C21.9661 26.8948 22.2175 26.999 22.4799 27.0001C22.6115 27.0008 22.7419 26.9756 22.8638 26.9258C22.9856 26.8761 23.0964 26.8027 23.1899 26.7101C23.2836 26.6171 23.358 26.5065 23.4088 26.3846C23.4595 26.2628 23.4857 26.1321 23.4857 26.0001C23.4857 25.868 23.4595 25.7373 23.4088 25.6155C23.358 25.4936 23.2836 25.383 23.1899 25.2901L18.5999 20.7101Z" fill="white"/>
<defs>
<linearGradient id="paint0_linear_0_1" x1="635.45" y1="-25.3855" x2="635.45" y2="1090.5" gradientUnits="userSpaceOnUse">
<stop stop-color="#222222"/>
<stop offset="0.116448" stop-color="#1F1F1F"/>
<stop offset="0.256586" stop-color="#171717"/>
<stop offset="0.329411" stop-color="#161616"/>
<stop offset="0.359758" stop-color="#151515"/>
<stop offset="0.448896" stop-color="#131313"/>
<stop offset="0.552161" stop-color="#121212"/>
<stop offset="0.753374" stop-color="#121212"/>
<stop offset="0.854544" stop-color="#121212"/>
<stop offset="1" stop-color="#121212" stop-opacity="0"/>
</linearGradient>
</defs>
</svg>
