<svg width="18" height="18" viewBox="0 0 18 18" fill="none" xmlns="http://www.w3.org/2000/svg">
<rect width="18" height="18" fill="#171717"/>
<rect x="-1512" y="-915" width="1920" height="909" fill="white"/>
<rect x="-1512" y="-6" width="1920" height="30" fill="#1ED760"/>
<path d="M11.25 3.18747C11.25 2.37822 10.2945 1.94997 9.69 2.48697L6.32025 5.48172C6.2174 5.57335 6.0845 5.62406 5.94675 5.62422H3.1875C2.73995 5.62422 2.31072 5.80201 1.99426 6.11848C1.67779 6.43495 1.5 6.86417 1.5 7.31172V10.6845C1.5 11.132 1.67779 11.5612 1.99426 11.8777C2.31072 12.1942 2.73995 12.372 3.1875 12.372H5.9475C6.08525 12.3721 6.21815 12.4228 6.321 12.5145L9.68925 15.51C10.2937 16.047 11.25 15.618 11.25 14.8095V3.18747ZM7.06875 6.32247L10.125 3.60522V14.3917L7.06875 11.6737C6.75989 11.3989 6.36091 11.2471 5.9475 11.247H3.1875C3.03832 11.247 2.89524 11.1877 2.78975 11.0822C2.68426 10.9767 2.625 10.8337 2.625 10.6845V7.31247C2.625 7.16329 2.68426 7.02022 2.78975 6.91473C2.89524 6.80924 3.03832 6.74997 3.1875 6.74997H5.9475C6.36091 6.74987 6.75989 6.59801 7.06875 6.32322V6.32247Z" fill="black"/>
<path d="M14.244 4.42271C14.3034 4.37878 14.3709 4.34698 14.4425 4.32912C14.5142 4.31126 14.5887 4.3077 14.6618 4.31864C14.7348 4.32957 14.805 4.35479 14.8683 4.39285C14.9316 4.43091 14.9868 4.48106 15.0308 4.54046C15.9871 5.83038 16.5024 7.39417 16.5 8.99996C16.5021 10.6058 15.9866 12.1696 15.03 13.4595C14.9394 13.574 14.8078 13.6488 14.663 13.6681C14.5182 13.6873 14.3716 13.6495 14.2542 13.5626C14.1368 13.4757 14.0578 13.3465 14.0339 13.2024C14.01 13.0583 14.0432 12.9106 14.1263 12.7905C14.9394 11.6942 15.3774 10.3649 15.375 8.99996C15.3774 7.63502 14.9394 6.30573 14.1263 5.20946C14.0823 5.15007 14.0505 5.08261 14.0327 5.01093C14.0148 4.93925 14.0113 4.86475 14.0222 4.79169C14.0331 4.71864 14.0583 4.64845 14.0964 4.58514C14.1345 4.52183 14.1846 4.46663 14.244 4.42271Z" fill="black"/>
<path d="M12.8573 6.27745C12.9222 6.24223 12.9935 6.22014 13.067 6.21246C13.1404 6.20478 13.2147 6.21165 13.2856 6.23268C13.3564 6.25372 13.4224 6.2885 13.4798 6.33505C13.5372 6.38159 13.5848 6.43899 13.62 6.50395C14.022 7.24645 14.25 8.0977 14.25 8.99995C14.2513 9.87145 14.0347 10.7294 13.62 11.496C13.549 11.6272 13.4287 11.7249 13.2857 11.7675C13.1427 11.8102 12.9885 11.7942 12.8573 11.7232C12.726 11.6522 12.6283 11.5319 12.5857 11.3889C12.543 11.2459 12.559 11.0917 12.63 10.9605C12.945 10.3777 13.125 9.71095 13.125 8.99995C13.125 8.28895 12.945 7.6222 12.63 7.03945C12.5948 6.97446 12.5728 6.90316 12.5651 6.82964C12.5575 6.75612 12.5644 6.68182 12.5856 6.61098C12.6067 6.54014 12.6415 6.47416 12.6881 6.4168C12.7348 6.35945 12.7922 6.31184 12.8573 6.2767V6.27745Z" fill="black"/>
</svg>
