<svg width="73" height="21" viewBox="0 0 73 21" fill="none" xmlns="http://www.w3.org/2000/svg">
<path d="M10.4999 0.000157503C4.70107 0.000157503 0 4.70114 0 10.5001C0 16.2992 4.70107 21 10.4999 21C16.2994 21 21 16.2993 21 10.5001C21 4.70146 16.2994 0.000630011 10.4998 0.000630011L10.4999 0V0.000157503ZM15.3152 15.1442C15.1271 15.4526 14.7235 15.5506 14.4149 15.3611C11.9497 13.8552 8.84617 13.5142 5.19121 14.3493C4.83904 14.4295 4.48797 14.2088 4.40765 13.8565C4.32701 13.5041 4.54688 13.1531 4.89999 13.0729C8.89972 12.1591 12.3305 12.5525 15.0983 14.2439C15.4068 14.4332 15.5047 14.8357 15.3152 15.1442ZM16.6004 12.2852C16.3633 12.6703 15.8593 12.7919 15.4744 12.555C12.652 10.8201 8.34988 10.3177 5.0115 11.3312C4.57854 11.4619 4.12131 11.218 3.98996 10.7858C3.85955 10.3528 4.10367 9.89653 4.53585 9.76485C8.3491 8.60784 13.0897 9.16823 16.3309 11.16C16.7158 11.3971 16.8374 11.9011 16.6005 12.2855V12.2854L16.6004 12.2852ZM16.7108 9.3081C13.3266 7.29805 7.74335 7.1133 4.51239 8.09391C3.99358 8.25125 3.44485 7.95846 3.28766 7.43948C3.13048 6.92036 3.42311 6.37209 3.94223 6.21443C7.65121 5.08844 13.8169 5.30595 17.7131 7.61904C18.1807 7.89609 18.3338 8.49869 18.0566 8.96474C17.7807 9.43142 17.1764 9.5853 16.7113 9.3081H16.7108Z" fill="#1ED760"/>
<path d="M30.4606 8.99795C28.6221 8.56562 28.2954 8.26219 28.2954 7.6246C28.2954 7.02224 28.8701 6.61687 29.7257 6.61687C30.5547 6.61687 31.376 6.92469 32.2381 7.55839C32.2635 7.57758 32.2966 7.58523 32.3283 7.58021C32.3443 7.57795 32.3597 7.57249 32.3735 7.56416C32.3872 7.55584 32.3991 7.54483 32.4084 7.53181L33.3061 6.28397C33.3238 6.25923 33.3313 6.22876 33.327 6.19876C33.3228 6.16876 33.3071 6.14148 33.2832 6.12248C32.2571 5.31085 31.1027 4.91626 29.7524 4.91626C27.7677 4.91626 26.3806 6.09101 26.3806 7.7718C26.3806 9.57422 27.577 10.2124 29.6444 10.7051C31.4027 11.1047 31.7003 11.4395 31.7003 12.0378C31.7003 12.7011 31.1001 13.1136 30.1339 13.1136C29.0608 13.1136 28.1848 12.7563 27.2058 11.9212C27.1813 11.9008 27.1499 11.8905 27.118 11.8924C27.085 11.8949 27.0557 11.9099 27.0354 11.9337L26.0284 13.1149C25.9865 13.165 25.9915 13.2377 26.0399 13.2804C27.1791 14.2835 28.5802 14.8126 30.0932 14.8126C32.2317 14.8126 33.6138 13.6603 33.6138 11.8761C33.6176 10.3705 32.7034 9.53673 30.4644 8.99958L30.4606 8.99795ZM38.4528 7.20995C37.5259 7.20995 36.7656 7.57006 36.1375 8.30795V7.4774C36.1377 7.44599 36.1252 7.41582 36.1028 7.39351C36.0803 7.3712 36.0499 7.35857 36.018 7.3584H34.3715C34.3054 7.3584 34.252 7.41182 34.252 7.4774V16.7059C34.252 16.7711 34.3054 16.825 34.3715 16.825H36.018C36.0841 16.825 36.1375 16.7711 36.1375 16.7059V13.7932C36.7656 14.4866 37.5259 14.8264 38.4528 14.8264C40.1756 14.8264 41.92 13.5186 41.92 11.0185C41.9225 8.51797 40.1781 7.20982 38.4541 7.20982L38.4528 7.20995ZM40.0052 11.0185C40.0052 12.2911 39.2106 13.1801 38.0714 13.1801C36.9462 13.1801 36.0969 12.251 36.0969 11.0185C36.0969 9.786 36.9462 8.85714 38.0714 8.85714C39.1915 8.85702 40.0052 9.76594 40.0052 11.0185ZM46.3891 7.20995C44.1704 7.20995 42.4324 8.89463 42.4324 11.0458C42.4324 13.1738 44.159 14.8402 46.3624 14.8402C48.5886 14.8402 50.3318 13.1613 50.3318 11.0185C50.3318 8.8831 48.6001 7.20995 46.3891 7.20995ZM46.3891 13.1926C45.2092 13.1926 44.3192 12.2572 44.3192 11.0179C44.3192 9.77296 45.1787 8.86955 46.3624 8.86955C47.5499 8.86955 48.445 9.80456 48.445 11.0451C48.445 12.2898 47.5804 13.1926 46.3891 13.1926ZM55.0691 7.3584H53.2573V5.53203C53.2574 5.51649 53.2544 5.50109 53.2484 5.4867C53.2424 5.47231 53.2336 5.45923 53.2225 5.44819C53.2114 5.43715 53.1982 5.42838 53.1837 5.42237C53.1692 5.41636 53.1536 5.41323 53.1378 5.41317H51.4913C51.4252 5.41317 51.3705 5.46658 51.3705 5.53203V7.3584H50.5797C50.5136 7.3584 50.4602 7.41182 50.4602 7.4774V8.87256C50.4602 8.93802 50.5136 8.99155 50.5797 8.99155H51.3705V12.602C51.3705 14.0603 52.1067 14.8001 53.5599 14.8001C54.1499 14.8001 54.6394 14.6797 55.1009 14.4214C55.139 14.4013 55.1619 14.3612 55.1619 14.3186V12.9895C55.1619 12.9494 55.1403 12.9105 55.1047 12.8892C55.0874 12.8783 55.0674 12.872 55.0469 12.8712C55.0264 12.8703 55.006 12.8748 54.9877 12.8842C54.6712 13.0409 54.3647 13.1136 54.0215 13.1136C53.4938 13.1136 53.2573 12.8766 53.2573 12.3475V8.99218H55.0691C55.1352 8.99218 55.1886 8.93877 55.1886 8.87319V7.47815C55.1892 7.46258 55.1865 7.44707 55.1808 7.43255C55.175 7.41803 55.1664 7.40481 55.1553 7.39369C55.1443 7.38256 55.1311 7.37377 55.1164 7.36783C55.1018 7.3619 55.0862 7.35894 55.0704 7.35916L55.0691 7.3584ZM61.3805 7.36555V7.14124C61.3805 6.48133 61.6373 6.18705 62.212 6.18705C62.5553 6.18705 62.8312 6.25426 63.1401 6.35582C63.1783 6.36761 63.2177 6.36171 63.2482 6.33927C63.2637 6.32825 63.2763 6.31374 63.2849 6.29694C63.2935 6.28014 63.2979 6.26155 63.2978 6.24272V4.87476C63.2981 4.84921 63.2899 4.82426 63.2746 4.8037C63.2592 4.78313 63.2374 4.76807 63.2126 4.76079C62.8871 4.66512 62.4701 4.56694 61.8446 4.56694C60.3252 4.56694 59.5204 5.41129 59.5204 7.00783V7.35138H58.7295C58.6634 7.35138 58.6088 7.4048 58.6088 7.47025V8.87256C58.6088 8.93802 58.6634 8.99155 58.7295 8.99155H59.5204V14.5593C59.5204 14.6258 59.5751 14.6784 59.6412 14.6784H61.2864C61.3538 14.6784 61.4072 14.6258 61.4072 14.5593V8.99193H62.9443L65.299 14.5593C65.032 15.1436 64.7688 15.2602 64.4103 15.2602C64.1204 15.2602 63.814 15.175 63.5025 15.0057C63.473 14.991 63.4389 14.9879 63.4071 14.9969C63.3754 15.0082 63.3487 15.0308 63.3359 15.0609L62.7778 16.2683C62.7511 16.326 62.774 16.3925 62.8299 16.4225C63.4122 16.7335 63.9373 16.8664 64.587 16.8664C65.8025 16.8664 66.4751 16.3072 67.0663 14.8051L69.9219 7.52805C69.9294 7.51006 69.9321 7.49052 69.9299 7.47122C69.9277 7.45192 69.9205 7.43348 69.9092 7.41759C69.8985 7.40168 69.8839 7.38864 69.8669 7.37963C69.8498 7.37062 69.8307 7.36591 69.8113 7.36593H68.0974C68.0453 7.36593 67.9995 7.39815 67.983 7.44567L66.2272 12.3901L64.3048 7.44241C64.2962 7.41999 64.2809 7.40067 64.2609 7.38701C64.2409 7.37336 64.2172 7.366 64.1929 7.36593L61.3805 7.36555ZM57.7213 7.3584H56.0748C56.0087 7.3584 55.954 7.41182 55.954 7.4774V14.5593C55.954 14.6258 56.0087 14.6784 56.0748 14.6784H57.7213C57.7874 14.6784 57.8421 14.6258 57.8421 14.5593V7.4779C57.8421 7.46225 57.839 7.44675 57.833 7.43229C57.8269 7.41783 57.818 7.4047 57.8068 7.39364C57.7956 7.38258 57.7822 7.37382 57.7676 7.36786C57.7529 7.3619 57.7372 7.35836 57.7213 7.3584ZM56.9076 4.13361C56.2553 4.13361 55.7264 4.65421 55.7264 5.29731C55.7264 5.45027 55.757 5.60174 55.8164 5.74306C55.8757 5.88437 55.9627 6.01278 56.0724 6.12093C56.1821 6.22908 56.3123 6.31487 56.4556 6.3734C56.5989 6.43192 56.7525 6.46204 56.9076 6.46202C57.5598 6.46202 58.0875 5.94079 58.0875 5.29731C58.0875 4.65433 57.5586 4.13361 56.9076 4.13361ZM71.3281 9.63554C70.6772 9.63554 70.1699 9.11957 70.1699 8.49302C70.1699 7.86647 70.6835 7.34461 71.3345 7.34461C71.9855 7.34461 72.4928 7.86045 72.4928 8.4865C72.4928 9.11305 71.9791 9.63554 71.3281 9.63554ZM71.3345 7.45821C70.7407 7.45821 70.2919 7.92339 70.2919 8.49302C70.2919 9.0624 70.7382 9.52131 71.3281 9.52131C71.9219 9.52131 72.3707 9.0565 72.3707 8.4865C72.3707 7.91712 71.9244 7.45821 71.3345 7.45821ZM71.5913 8.60399L71.9193 9.05638H71.6422L71.3472 8.64135H71.0942V9.05638H70.8628V7.85719H71.4044C71.6879 7.85719 71.8736 7.99975 71.8736 8.23974C71.8749 8.43635 71.7591 8.55647 71.5926 8.60399H71.5913ZM71.3955 8.06295H71.0942V8.44224H71.3955C71.5455 8.44224 71.6358 8.36964 71.6358 8.25241C71.6358 8.12903 71.5455 8.06295 71.3955 8.06295Z" fill="white"/>
</svg>
