<svg width="30" height="30" viewBox="0 0 30 30" fill="none" xmlns="http://www.w3.org/2000/svg">
<rect width="30" height="30" fill="#171717"/>
<rect x="-30" y="-402" width="1920" height="909" fill="white"/>
<rect x="-30" y="-401" width="301" height="795" fill="black"/>
<rect width="30" height="30" rx="5" fill="#004638"/>
<path d="M10.9921 21.4245C10.1006 20.5329 9.49344 19.397 9.24747 18.1604C9.00149 16.9238 9.12774 15.642 9.61026 14.4771C10.0928 13.3122 10.9099 12.3166 11.9582 11.6161C13.0066 10.9156 14.2391 10.5417 15.5 10.5417C16.7608 10.5417 17.9934 10.9156 19.0417 11.6161C20.0901 12.3166 20.9072 13.3122 21.3897 14.4771C21.8722 15.642 21.9985 16.9238 21.7525 18.1604C21.5065 19.397 20.8994 20.5329 20.0078 21.4245L21.0094 22.4261C21.734 21.7034 22.3086 20.8446 22.7003 19.8991C23.092 18.9536 23.2929 17.9401 23.2916 16.9167C23.2916 12.6135 19.8031 9.125 15.5 9.125C11.1969 9.125 7.70831 12.6135 7.70831 16.9167C7.70831 19.0686 8.58027 21.0165 9.99056 22.4261L10.9921 21.4245Z" fill="#159643"/>
<path d="M19.0062 20.4229C19.6996 19.7295 20.1718 18.846 20.3631 17.8842C20.5543 16.9224 20.4561 15.9254 20.0808 15.0194C19.7055 14.1135 19.07 13.3391 18.2546 12.7943C17.4392 12.2495 16.4806 11.9587 15.5 11.9587C14.5193 11.9587 13.5607 12.2495 12.7453 12.7943C11.9299 13.3391 11.2944 14.1135 10.9191 15.0194C10.5438 15.9254 10.4456 16.9224 10.6369 17.8842C10.8281 18.846 11.3003 19.7295 11.9937 20.4229L12.996 19.4213C12.5007 18.926 12.1634 18.295 12.0267 17.6079C11.89 16.9209 11.9602 16.2088 12.2282 15.5617C12.4963 14.9145 12.9502 14.3614 13.5327 13.9722C14.1151 13.583 14.7998 13.3753 15.5003 13.3753C16.2008 13.3753 16.8855 13.583 17.468 13.9722C18.0504 14.3614 18.5043 14.9145 18.7724 15.5617C19.0405 16.2088 19.1106 16.9209 18.9739 17.6079C18.8373 18.295 18.4999 18.926 18.0046 19.4213L19.0062 20.4229Z" fill="#159643"/>
<path d="M17.0024 18.419C17.2995 18.1218 17.5019 17.7432 17.5838 17.331C17.6658 16.9188 17.6237 16.4916 17.4628 16.1033C17.302 15.715 17.0296 15.3831 16.6802 15.1497C16.3307 14.9162 15.9199 14.7916 15.4996 14.7916C15.0794 14.7916 14.6685 14.9162 14.3191 15.1497C13.9696 15.3831 13.6973 15.715 13.5364 16.1033C13.3756 16.4916 13.3335 16.9188 13.4154 17.331C13.4974 17.7432 13.6998 18.1218 13.9969 18.419L14.9992 17.4175C14.9001 17.3184 14.8326 17.1922 14.8053 17.0548C14.7779 16.9174 14.7919 16.7749 14.8456 16.6455C14.8992 16.5161 14.9899 16.4054 15.1064 16.3276C15.2229 16.2497 15.3599 16.2082 15.5 16.2082C15.6401 16.2082 15.7771 16.2497 15.8935 16.3276C16.01 16.4054 16.1008 16.5161 16.1544 16.6455C16.208 16.7749 16.222 16.9174 16.1947 17.0548C16.1673 17.1922 16.0999 17.3184 16.0008 17.4175L17.0024 18.419Z" fill="#159643"/>
</svg>
