<svg width="22" height="24" viewBox="0 0 22 24" fill="none" xmlns="http://www.w3.org/2000/svg">
<rect width="22" height="24" fill="#E5E5E5"/>
<rect x="-1503" y="-1027" width="1728" height="1117" fill="white"/>
<rect x="-1215.1" y="-1032.39" width="1457.1" height="1115.89" fill="url(#paint0_linear_0_1)"/>
<rect x="-238" y="-182" width="251.292" height="250.753" fill="#181818"/>
<rect x="-1503" y="-44" width="1727.1" height="112" fill="#181818"/>
<path d="M17.6582 18.0037H4.16522C3.80747 18.0033 3.46448 17.8451 3.21151 17.5639C2.95855 17.2827 2.81628 16.9014 2.81592 16.5037V6.00366C2.81628 5.60596 2.95855 5.22466 3.21151 4.94344C3.46448 4.66222 3.80747 4.50406 4.16522 4.50366H17.6582C18.0159 4.50406 18.3589 4.66222 18.6119 4.94344C18.8649 5.22466 19.0071 5.60596 19.0075 6.00366V16.5037C19.0069 16.9013 18.8646 17.2825 18.6117 17.5637C18.3588 17.8448 18.0159 18.0031 17.6582 18.0037ZM4.16522 6.00366V16.5037H17.6582V6.00366H4.16522Z" fill="#1B9145"/>
<path d="M1.4668 19.5037H20.357V21.0037H1.4668V19.5037Z" fill="#1B9145"/>
<defs>
<linearGradient id="paint0_linear_0_1" x1="-486.55" y1="-1032.39" x2="-486.55" y2="83.5" gradientUnits="userSpaceOnUse">
<stop stop-color="#222222"/>
<stop offset="0.116448" stop-color="#1F1F1F"/>
<stop offset="0.256586" stop-color="#171717"/>
<stop offset="0.329411" stop-color="#161616"/>
<stop offset="0.359758" stop-color="#151515"/>
<stop offset="0.448896" stop-color="#131313"/>
<stop offset="0.552161" stop-color="#121212"/>
<stop offset="0.753374" stop-color="#121212"/>
<stop offset="0.854544" stop-color="#121212"/>
<stop offset="1" stop-color="#121212" stop-opacity="0"/>
</linearGradient>
</defs>
</svg>
